/* XPM */
static char *e804e9e017b84bd0ab9a23046b8cfa1cP0Sd9jWa0Aa5aMmL[] = {
/* columns rows colors chars-per-pixel */
"32 32 131 2 ",
"   c #383736",
".  c #363738",
"X  c #3C3C3C",
"o  c #3E403E",
"O  c #45423E",
"+  c #373D47",
"@  c #3B3E45",
"#  c #363D48",
"$  c #393D4A",
"%  c #3D4146",
"&  c #3D4149",
"*  c #444444",
"=  c #4A4545",
"-  c #4D4A45",
";  c #44464A",
":  c #4B454B",
">  c #46494B",
",  c #4A4A4A",
"<  c #524645",
"1  c #514B44",
"2  c #5D4C45",
"3  c #52474D",
"4  c #534C4D",
"5  c #5A4C4C",
"6  c #4F514E",
"7  c #52514E",
"8  c #5A554E",
"9  c #5C594E",
"0  c #4E4F50",
"q  c #594E50",
"w  c #4F5051",
"e  c #555151",
"r  c #5B5451",
"t  c #5D5D54",
"y  c #624748",
"u  c #634C4A",
"i  c #774C47",
"p  c #764D4C",
"a  c #625446",
"s  c #665847",
"d  c #63534C",
"f  c #6E514E",
"g  c #625A4F",
"h  c #77524D",
"j  c #644D52",
"k  c #6C4D51",
"l  c #704D55",
"z  c #635351",
"x  c #6D5153",
"c  c #655B52",
"v  c #6D5F54",
"b  c #605D58",
"n  c #735354",
"m  c #7C5156",
"M  c #7D5B56",
"N  c #7E5358",
"B  c #79624E",
"V  c #666257",
"C  c #6D6253",
"Z  c #67675B",
"A  c #6C675E",
"S  c #736654",
"D  c #7A6554",
"F  c #756955",
"G  c #7C6B55",
"H  c #7A6C59",
"J  c #6E7067",
"K  c #767060",
"L  c #76756B",
"P  c #7A766A",
"I  c #77796C",
"U  c #7F7C6E",
"Y  c #7E7E73",
"T  c #83524F",
"R  c #8D544F",
"E  c #805357",
"W  c #825A55",
"Q  c #82525A",
"!  c #836E57",
"~  c #896B51",
"^  c #846C5A",
"/  c #926053",
"(  c #996454",
")  c #906659",
"_  c #887257",
"`  c #84735C",
"'  c #88755A",
"]  c #8F7C5C",
"[  c #947457",
"{  c #90745B",
"}  c #937C5D",
"|  c #9A7C5C",
" . c #887466",
".. c #8C7D66",
"X. c #807D6F",
"o. c #A17F60",
"O. c #95805F",
"+. c #9B825E",
"@. c #9E835F",
"#. c #B1835B",
"$. c #B28A5E",
"%. c #87826E",
"&. c #88846E",
"*. c #968060",
"=. c #988666",
"-. c #8A8171",
";. c #8F8873",
":. c #998473",
">. c #918C76",
",. c #9A8970",
"<. c #A78463",
"1. c #A78C61",
"2. c #A98E63",
"3. c #AF9162",
"4. c #AB9064",
"5. c #B59562",
"6. c #B09064",
"7. c #A29277",
"8. c #B5A17B",
"9. c #929485",
"0. c #A39D86",
"q. c #A79E85",
"w. c #A89C81",
"e. c #ADA181",
"r. c #B6A988",
"t. c #BAAF8F",
"y. c #BFB085",
"u. c #B7B192",
"i. c #B6B195",
"p. c #C0AD80",
"a. c #D3D2AE",
/* pixels */
", , , , , , , , , , , 7 7 = = > , , , , , , , , , , , , , , , , ",
", , , , , , , , , , , 7 7 J I L b , , , , , , , , , , , , , , , ",
", , , , , , , , , , , , X.e.y.p.=.8 , , , , , , , , = , , , , , ",
", , , , , , , , , , e A H 1.5.5.6.G - , , , , , , , = , , , , , ",
", , , , , , , , , , t :.M { <.o.) W 8 , 4 4 , , , , = , , , , , ",
", , , , , , , , , , 9  .M M W W M ^ { 5 x T 2 , , , , , , , , , ",
", , , , , , , , , , S F g v v v C F ^ 5 f R m 5 , , , , , , , , ",
", , , , , , , , > 7 C C H ] O.} ' F c 5 , z m h 2 , , , , , = = ",
", , , , , , , , 9 ` O.4.3.2.+.} F c 4 i d , x n 4 , , , , , , , ",
", , , , , , , 7 } +.@.+._ ! G F 8 r 9 5 , > z 8 , , , , , , , , ",
", , , , , , > 9 G ` ! G _ ! G G r 7 9 V 9 7 G H 4 , , , , , , , ",
", , , , , , , > , v G G S S _ ' 8 , 6 7 7 9 S F 9 , , , , , , , ",
", , , , , , , , % , c S S S B d & ; , 6 > 8 F S 9 , , , , , , = ",
", , , , , , V 0.K g 8 9 C D W p y ; ; , ; c S H S - , , , , , , ",
", , , , , , &.a.u.7.9 > 4 4 j k N l y = & , P >.%.9 , , , , , , ",
", , , , , - ` r.t.8.C , j * > , 3 k N k r U q.;.Z r , , , , , , ",
", , , , , - C ..,.*.G k j , 6 6 , 4 4 , ; U w.C > , , , , , , , ",
"= , , , , , 7 g 8 r x k : > w 7 6 6 ; + + 9.i.g 7 - , , , , , , ",
", = , , , , , , , , % + @ > , 7 6 , & & + Y -., 7 - , , , , , , ",
", , , , , , , , , ; @ @ @ & ; > ; & $ @ @ P ` 8 , , , , , , , = ",
"= , , , , , , , q 3 & > & # $ @ & $ $ @ > t C 7 , , , , , , , * ",
"* = , , , , , , q > ; , > & $ ; 0 > > * , 6 - , , , , , , , = = ",
"* = , , , , , 5 e w ; ; 4 , & & > e , ; , 7 6 , , , , > = * * = ",
"= = , , , , , j j r e > > 7 , , - 7 , > 7 6 7 4 , , , > = > = * ",
", , , , , = , r n n r ; ; 7 7 6 , , > > 7 5 x n 4 , , , , , , = ",
", , , , , , , 7 7 8 4 ; * , , , ; > , > z n N N 5 , , = , , , , ",
", , , , , , > 4 7 , = * * * * * * * * * r n E N x , , = , , , , ",
", , , , , 1 n M n = X X X X X X X X X X @ 4 N Q n = > , , , , , ",
", , , , > u ( / h * X X X . . . . . . X @ = j n x < * = , , , , ",
", , , , * * 2 < @ X . . . . . . . . . . . . 1 { | ~ O * , , , , ",
", , , , * o X X X X . . . . . . . . . .   . - [ #.$.s * , , , , ",
", , , , , * @ X X X X X X . . . . . X X X X X = 2 a - = , , , , "
};
