/* XPM */
static char *c0b854a899fa4812ae2d8fe44b443d5ehBmicl7srvZhQjDx[] = {
/* columns rows colors chars-per-pixel */
"32 32 147 2 ",
"   c #1C1A1E",
".  c #211F1F",
"X  c #1F1C21",
"o  c #231E22",
"O  c #252226",
"+  c #2B2424",
"@  c #272428",
"#  c #29252A",
"$  c #2E292C",
"%  c #312626",
"&  c #332925",
"*  c #392C27",
"=  c #312C2B",
"-  c #3A2D2A",
";  c #3C322E",
":  c #332C31",
">  c #343134",
",  c #3B3433",
"<  c #3F3937",
"1  c #3A3139",
"2  c #3D3B3C",
"3  c #402628",
"4  c #4C2A2B",
"5  c #532D2E",
"6  c #43332C",
"7  c #4A362D",
"8  c #4C392D",
"9  c #523D2F",
"0  c #433632",
"q  c #443934",
"w  c #433D3C",
"e  c #4A3D3A",
"r  c #563F30",
"t  c #5F3C37",
"y  c #77292C",
"u  c #4C4033",
"i  c #46413C",
"p  c #4C413C",
"a  c #574033",
"s  c #584030",
"d  c #53423E",
"f  c #5B453B",
"g  c #53483F",
"h  c #59483F",
"j  c #644837",
"k  c #634938",
"l  c #6A4D3C",
"z  c #6D503F",
"x  c #443E42",
"c  c #454545",
"v  c #4A4544",
"b  c #474847",
"n  c #4C4846",
"m  c #474748",
"M  c #474848",
"N  c #4B4B4B",
"B  c #544643",
"V  c #5F4743",
"C  c #544C47",
"Z  c #5A4B45",
"A  c #534C4B",
"S  c #5C4D48",
"D  c #53544E",
"F  c #5B514A",
"G  c #58584C",
"H  c #644240",
"J  c #6A4041",
"K  c #634A42",
"L  c #6A4D47",
"P  c #625147",
"I  c #695144",
"U  c #6E5945",
"Y  c #63514C",
"T  c #6C5C4C",
"R  c #735145",
"E  c #7B5A45",
"W  c #735D4E",
"Q  c #7E5F4E",
"!  c #635852",
"~  c #695B50",
"^  c #645F5C",
"/  c #735E54",
"(  c #785E52",
")  c #73604B",
"_  c #6C6455",
"`  c #6A635A",
"'  c #766654",
"]  c #7A6453",
"[  c #7D6D55",
"{  c #75645B",
"}  c #796759",
"|  c #766B5F",
" . c #796C5A",
".. c #7E7259",
"X. c #6A6563",
"o. c #6E6862",
"O. c #716965",
"+. c #7D716A",
"@. c #874743",
"#. c #865F45",
"$. c #8C6247",
"%. c #96684B",
"&. c #996C4E",
"*. c #836D51",
"=. c #8C6D54",
"-. c #816958",
";. c #86725D",
":. c #8C755D",
">. c #937354",
",. c #9D7151",
"<. c #977C5F",
"1. c #866F68",
"2. c #837062",
"3. c #8D7B61",
"4. c #8D7E6F",
"5. c #927165",
"6. c #967B62",
"7. c #8C8163",
"8. c #958364",
"9. c #9A8467",
"0. c #96826A",
"q. c #9B8669",
"w. c #9F8869",
"e. c #838574",
"r. c #888A7B",
"t. c #9D8976",
"y. c #948B79",
"u. c #A38764",
"i. c #A88663",
"p. c #A88965",
"a. c #A38B6B",
"s. c #A0926F",
"d. c #A5926F",
"f. c #AB936F",
"g. c #A69370",
"h. c #A79574",
"j. c #A89577",
"k. c #A99873",
"l. c #AA9874",
"z. c #AB9C78",
"x. c #AC9E78",
"c. c #B09F7A",
"v. c #AEA07A",
"b. c #B1A17A",
"n. c #9E9785",
"m. c #A39988",
"M. c #B0AC97",
/* pixels */
"m m m c m m m m m m m M 2 = % & * - , c M m m m m m m m c m m m ",
"N N m m N N N N N N N w ; 6 6 6 7 7 7 q M N N N N N N N b N N N ",
"N N N m m N N N N N m ; 7 r 7 a 7 9 s 9 w N N N N N N N N N N N ",
"N N N m c c m N N N c % * 9 6 k 8 9 6 7 q N N N N N N N N N N N ",
"N N N m m m c m N N m $ - % 0 u ; 6 - 6 ; v N N N N N N N N N N ",
"N N N m m m c m m N m > f :.3.[  .6 % - + m N N N N N N N N N N ",
"N N m N N m m m m m m > d ;.j.j.} + o + : N N N N N N N N N N N ",
"N M N N m c m m m m m c , = w d R - o O 2 N N N N N N N N N N N ",
"N N N N m c m m c m m c c , d | W e x N b c N N N N N N N N N N ",
"N N N N N m m c c c m m n V e ^ S H J Y r.D N N N N N N N N N N ",
"N N N N N N m m c m m m S / 4 Y 1.5.6.t.M.e.N N N N N N N N N N ",
"N N N N N N N N m M m N c 3 y @.n.M.y.! 4.m.` m N N N N N N N N ",
"N N N N N N N N m m m N 2 % t 5 ` +.O.2 v ` G N N N N N N N N N ",
"N N N N N N N N N m m w e ( 5.{ O.O.X.N 2 L Q A N N N N N N N N ",
"N N N N N N N N N c > : : f ] 2.+.o.^ A c K i. .N N N N N N N N ",
"N m m N M N N N n p : 1 # X . = < > @ @ m B =.q.A N N N N N N N ",
"N N m m m N N ~ 9.s._ : O o   X @ $ : @ m N S 9.' C n N N N N N ",
"N N N N m n ] d.z.z.0.Z @ X O : : : 1 o 2 N N T <.*.U g N N N N ",
"N N N N n ;.l.x.h.;.S B , ; ..7.[ B : X $ m N N A C d v N N N N ",
"N N N N Z a.c.a.I w m N c ) x.v.b.8., > 2 m N N N N N N N N N N ",
"N N N N v P ;.-.Z v N N c :.x.x.k.W v N N N N N N N N N N N N N ",
"N N N N N N v B Y S v N d w.v.g.T v N N N N N N N N N N N N N N ",
"N N N N N N N v w B Z v P f.b.6.d N N N N N N N N N N N N N N N ",
"N N N N N N N N m , d S S [ f.u.8.F N N N N N N N N N N N N N N ",
"N N N N N N N N m w B B n v R &.p.' v N N N N N N N N N N N N N ",
"N N N N N N N c , e B v N N v E ,.=.n N N N N N N N N N N N N N ",
"N N N N N N N N w c N N N N N v E %.h N N N N N N N N N N N N N ",
"N N N N N N N N N N N N N N N N p $.z m N N N N N N N N N N N N ",
"N N N N N N N N N N N N N N N N m l E v N N N N N N N N N N N N ",
"N N N N N N N N N N N N N N N N M f #.e N N N N N N N N N N N N ",
"N N N N N N N N N N N N N N N N m l >.g N N N N N N N N N N N N ",
"N N N N N N N N N N N N N N N N w j E i N N N N N N N N N N N N "
};
