/* XPM */
static char *_ec7b6d5acfe46aa98020380dd80cb7dEhTmnVHpJ8Mlq330[] = {
/* columns rows colors chars-per-pixel */
"32 32 208 2 ",
"   c #14011C",
".  c #19061C",
"X  c #17081E",
"o  c #1D0B1D",
"O  c #1C131E",
"+  c #210C1C",
"@  c #251117",
"#  c #26121B",
"$  c #29141C",
"%  c #261B1E",
"&  c #2C191D",
"*  c #32191E",
"=  c #150522",
"-  c #1A0521",
";  c #150B25",
":  c #1A0A23",
">  c #160B29",
",  c #190D2C",
"<  c #1C1422",
"1  c #1D1B26",
"2  c #15132B",
"3  c #19132C",
"4  c #161A2D",
"5  c #1A1C2C",
"6  c #171430",
"7  c #1B1432",
"8  c #171B33",
"9  c #1C1B35",
"0  c #1D1739",
"q  c #1D1C3B",
"w  c #210727",
"e  c #250B26",
"r  c #230B2B",
"t  c #2A0D29",
"y  c #261323",
"u  c #2B1425",
"i  c #211927",
"p  c #20172D",
"a  c #2B132B",
"s  c #20182E",
"d  c #2E1B2A",
"f  c #331623",
"g  c #341A24",
"h  c #391B26",
"j  c #33132F",
"k  c #341B2B",
"l  c #3C1C2C",
"z  c #250334",
"x  c #27023D",
"c  c #251032",
"v  c #201C35",
"b  c #2B1A31",
"n  c #211D3D",
"m  c #351730",
"M  c #321B37",
"N  c #3B1B36",
"B  c #3F1936",
"V  c #36173E",
"C  c #331B3A",
"Z  c #1F2127",
"A  c #1E232B",
"S  c #1F282A",
"D  c #152337",
"F  c #1C2637",
"G  c #1B243C",
"H  c #1C293E",
"J  c #1A333E",
"K  c #2A2226",
"L  c #2F2C27",
"P  c #23242D",
"I  c #232A2B",
"U  c #2C2829",
"Y  c #342424",
"T  c #322927",
"R  c #3C2E25",
"E  c #35262C",
"W  c #3C232D",
"Q  c #322F2C",
"!  c #3A2A2E",
"~  c #28362D",
"^  c #3E3025",
"/  c #32332D",
"(  c #3F362A",
")  c #222434",
"_  c #232A33",
"`  c #22253B",
"'  c #242D38",
"]  c #2B2E3A",
"[  c #322636",
"{  c #3B2631",
"}  c #342B34",
"|  c #392B31",
" . c #34213A",
".. c #3A263D",
"X. c #3B2A3A",
"o. c #263034",
"O. c #2A3333",
"+. c #2B323C",
"@. c #293838",
"#. c #343332",
"$. c #3B3433",
"%. c #353A34",
"&. c #3C3A34",
"*. c #393738",
"=. c #3F393A",
"-. c #401D2E",
";. c #431E33",
":. c #481F37",
">. c #471F3A",
",. c #4B1F3D",
"<. c #45372C",
"1. c #432334",
"2. c #482337",
"3. c #402A36",
"4. c #45243A",
"5. c #4B223D",
"6. c #432A3A",
"7. c #4C2D3C",
"8. c #423335",
"9. c #423835",
"0. c #44323D",
"q. c #433D3D",
"w. c #4A393F",
"e. c #51313F",
"r. c #513A3D",
"t. c #45433D",
"y. c #464C3A",
"u. c #4C4B3E",
"i. c #1E1E41",
"p. c #2B0143",
"a. c #2F0D4B",
"s. c #310544",
"d. c #34054B",
"f. c #2D1143",
"g. c #201D41",
"h. c #1D2441",
"j. c #1D2942",
"k. c #212040",
"l. c #232A42",
"z. c #242A4A",
"x. c #2D2A48",
"c. c #382948",
"v. c #2C3244",
"b. c #26334E",
"n. c #28314F",
"m. c #313847",
"M. c #35344E",
"N. c #2B2D50",
"B. c #312455",
"V. c #302850",
"C. c #2B3555",
"Z. c #333051",
"A. c #32335B",
"S. c #39385D",
"D. c #3D3D64",
"F. c #3D3B6B",
"G. c #4C2340",
"H. c #422A41",
"J. c #4D2C41",
"K. c #502F40",
"L. c #443344",
"P. c #4E3441",
"I. c #473B43",
"U. c #4A3A41",
"Y. c #523242",
"T. c #513C44",
"R. c #3A405A",
"E. c #3F4567",
"W. c #464041",
"Q. c #4B4444",
"!. c #4B4C44",
"~. c #5A4C47",
"^. c #55464D",
"/. c #544A49",
"(. c #5A4E4D",
"). c #565645",
"_. c #585144",
"`. c #595B45",
"'. c #5D5349",
"]. c #5D5A4A",
"[. c #574F50",
"{. c #584E50",
"}. c #595250",
"|. c #5F5A51",
" X c #615647",
".X c #60574A",
"XX c #625B4B",
"oX c #695C55",
"OX c #64654A",
"+X c #63624C",
"@X c #656848",
"#X c #65684A",
"$X c #67684C",
"%X c #6B6F51",
"&X c #6C6E52",
"*X c #676259",
"=X c #6C6B5B",
"-X c #72665D",
";X c #706E5D",
":X c #766E5D",
">X c #717658",
",X c #767A5C",
"<X c #414267",
"1X c #424368",
"2X c #45486F",
"3X c #7C7564",
"4X c #797862",
"5X c #85856D",
/* pixels */
"C C C C C C X.=X5X5X-XY.u.).].+X@X$X;Xq.u.OX&X*XL. .C C C C C C ",
"C C C C L.0.q.=X,X&X|.].@X@X@X@X@X&X4X].OX@X%X;X{.^.H.C C C C C ",
"C C C I.[.P.W.'.'.'./.].@X@X+X].`.$X-X_. X XXX]./.}.U.L. .C C C ",
"C C #.!.(.K.7.W 2.4.W 9.y.y.t.&.| 3.1.! 4.5.2.W P.^.t.`.q.C C C ",
"C [ %.Q.Y.5.:.l 4.X.! d P K & g W E 8.U.5.,.,.,.:.1.u.>X!.[ C C ",
"C } #.6.,.,.,.:.;.-.l e } #.Q 1.5.1.1.1.-.-.;.B u 8.~.oXt.#. .C ",
"..&.Y l :.,.,.;.f @ @ # / / W N f $ @ @ @ @ $ e d 0.5.,.6.#.[ C ",
"I.].9.E 1.5.4.j :     . < o .               . + l :.,.,.5.#.[ C ",
"} w.J.5.,.3.d     = 3 ; 2 ; = ; , = 3 ; , > =   $ -.5.,.5.X.[ V ",
"[ 1.,.,.5.} :   , G j.0 3 5 3 3 5 1 4 6 q H 9 ; . g l l 4.6.[ C ",
"[ 6.,.,.5.{ X ; ` 9 0 h.H _ G 4 P ) _ H q 7 ` 9 . h :.{ 3.U...C ",
"#.6.,.,.5.} X 7 _ ) G j.N.F.z.4 S A.F.j.j.q _ _ : h ,.5.,.3.#.C ",
"/ 4.,.,.5.{ $ p 9 v h.G q C.z.8 I n.N.0 j.n 9 s y h ,.,.,.6.%. .",
"L l 5.G.5.Y.r.P o.) 9 G ; 2 H 4 I F ; 6 G 9 j.P L W 5.5.5.T.=Xc.",
"/ / U.(..X-X~.u 3 G 7 z.b.F ' 4 I ' l.C.q 5 5 O { W.'..XXX3X=X..",
"#.3.J.K.Y.Y.j . ; D z.<XE.m.~ 1 O.O.R.E.S.F 5 X m J.e.e.Y.T.*.C ",
"a e e e e w o 1 4 ; , D.<Xv P P S.9 V.2XN.= 2 4 3 u h h f y b C ",
"r         e - 3 8 ; ; ' +., 9 5 x.7 9 @.v   < 9 ; e l l l $ k C ",
"r . t t u k . 7 q > > H H 2 q 4 P 7 8 J 9 > 7 n > t ,.5.4.;.N C ",
"d y >.,.-.U X 7 g.q = 2 8 = q 4 P 3 ; 8 ; , i.g., t ,.4.=.T.H.C ",
"d g >.,.{ U - , q q ;     = q 4 I 3       7 i.9 ; t 5.1.9.Q...C ",
"d g >.5.q.t.< 1 8 q 0 , , P v.9 ] +.7 , , q q 7 2 a 5.:.W #.[ C ",
"d g :.,.7.Q.: 3 1 3 7 7 2 1 1XV.D.M.: 4 7 3 1 5 ; t ,.,.4.#.[ C ",
"d g :.,.:.0.- 7 n 7 q n 7 8 A.V.A.l.7 9 g.0 7 q > t ,.,.4.#.[ C ",
"g * >.;.h E - 7 i.g.g.g.h.G 3 , 3 4 G n i.g.g.q ; t ,.,.4.#.[ C ",
"$ * 4.g h ;.. = , q g.g.` A 7 3 A 3 _ i.g.g.0 > = t ,.,.4.$.#.C ",
"+ + :.{ Y E # . X , q k.) P Z.n v.+.Z G i.0 : . . t ,.,.5.Q.t. .",
"K y 5.6.8.q.$.+ O : q ` 5 < v 9 P i O A h.7 < % U [ 5.5.7._.]...",
"/ q._.XX:XoX0.o = , 0 9 8 A +.B.M.I 4 8 8 7 , o T t._.'.].+X)...",
"& Y R ^ <.7.j z p.p.p.p.p.z c a.f.r x p.p.p.p.z $ Y R R R ( %.C ",
"o $ & & & a r s.d.d.d.d.d.d.d.d.s.d.d.d.d.d.d.s.w $ & & & K [ C ",
"M M M M M C C V V V V V V V C C C V V V V V V V C M M M M C C C "
};
