/* XPM */
static char *_b9990a0107e454cae3bdd045c4e57a52MXbU5B2JuYQOSjn[] = {
/* columns rows colors chars-per-pixel */
"32 32 24 1 ",
"  c gray29",
". c #4A4A49",
"X c #4A4A4B",
"o c #4A4A48",
"O c #494949",
"+ c gray27",
"@ c #464645",
"# c #474746",
"$ c #484848",
"% c #464646",
"& c gray28",
"* c #434343",
"= c #444444",
"- c #474748",
"; c gray26",
": c gray25",
"> c #414141",
", c #4B4A49",
"< c #4B494A",
"1 c #4B4A4A",
"2 c #484B4A",
"3 c #4A494A",
"4 c #4B494B",
"5 c white",
/* pixels */
"          .   .X.o.O+@# ....o . ",
"                    $%&         ",
" O&OO                           ",
"$O&OO  O                        ",
"+O $$                           ",
"*=$%& O                         ",
"=++==$O              OOO        ",
"=+=**=+&-$           $$         ",
"*;*****+O                       ",
";:>==**+O        $O        OO   ",
"=;*%&;=$                   O%$  ",
"&*&+$ OO                    $+$ ",
"O*=+O                        O%O",
" &%+$$                          ",
"                                ",
"                                ",
"                                ",
"                                ",
"O&O                             ",
"O=+                             ",
"$=$                             ",
"&%                              ",
"$=&O                            ",
"O$&O                            ",
"  O                             ",
"                                ",
"   OO                           ",
"   $&O                          ",
"                              ,<",
"                              1 ",
"                           OO .2",
"         O&%O    $O O        O34"
};
