/* XPM */
static char *_a8462d7caeb4449c0db2a804821d0f7400VyUTcXn8knQQK[] = {
/* columns rows colors chars-per-pixel */
"32 32 176 2 ",
"   c #363636",
".  c #393837",
"X  c #3C3D3D",
"o  c #403F3E",
"O  c #3F403D",
"+  c #43403E",
"@  c #3C3E44",
"#  c #3E3F4A",
"$  c #403F41",
"%  c #3E4245",
"&  c #3B4149",
"*  c #444444",
"=  c #4C4644",
"-  c #474847",
";  c #4C4A46",
":  c #434549",
">  c #49464B",
",  c #45494C",
"<  c #4A4A4A",
"1  c #514644",
"2  c #534B45",
"3  c #56474E",
"4  c #5B474E",
"5  c #534D4C",
"6  c #5A4C4B",
"7  c #4F504C",
"8  c #54524D",
"9  c #5B544E",
"0  c #5F584E",
"q  c #4C4E50",
"w  c #514E50",
"e  c #535352",
"r  c #5C5551",
"t  c #5C5A54",
"y  c #654B48",
"u  c #644E4C",
"i  c #764F45",
"p  c #744F4C",
"a  c #63504F",
"s  c #6B564D",
"d  c #60584D",
"f  c #73534C",
"g  c #7E564C",
"h  c #624F51",
"j  c #6B4E53",
"k  c #645651",
"l  c #6B5353",
"z  c #645C53",
"x  c #6C5D52",
"c  c #6A5558",
"v  c #735254",
"b  c #7D5356",
"n  c #735D52",
"m  c #7E5358",
"M  c #735E5D",
"N  c #646056",
"B  c #6D6353",
"V  c #63635A",
"C  c #6B645A",
"Z  c #6D685C",
"A  c #736553",
"S  c #7A6157",
"D  c #746854",
"F  c #7A6A54",
"G  c #77615B",
"H  c #736B5C",
"J  c #7C6C59",
"K  c #7E725F",
"L  c #5D6262",
"P  c #626566",
"I  c #686961",
"U  c #706F69",
"Y  c #767363",
"T  c #797464",
"R  c #79776A",
"E  c #82564C",
"W  c #8F574B",
"Q  c #88584C",
"!  c #835354",
"~  c #835C53",
"^  c #965450",
"/  c #905F56",
"(  c #995851",
")  c #A35847",
"_  c #A55449",
"`  c #B95645",
"'  c #B15B47",
"]  c #B45D49",
"[  c #916A4F",
"{  c #856552",
"}  c #8B6354",
"|  c #836C53",
" . c #8A6A56",
".. c #857156",
"X. c #84765B",
"o. c #89745B",
"O. c #96745F",
"+. c #9F755E",
"@. c #947D5E",
"#. c #9A7A5A",
"$. c #A1644D",
"%. c #A06556",
"&. c #AD6B54",
"*. c #A1685C",
"=. c #B46B5B",
"-. c #AD7056",
";. c #AD7659",
":. c #A67D5F",
">. c #B07659",
",. c #966D61",
"<. c #827661",
"1. c #8F7E66",
"2. c #837D6C",
"3. c #967F60",
"4. c #937B6D",
"5. c #807E71",
"6. c #C47D62",
"7. c #7A8175",
"8. c #9A815F",
"9. c #A2815B",
"0. c #B98B5D",
"q. c #8F836E",
"w. c #908067",
"e. c #9E8560",
"r. c #868374",
"t. c #8A8574",
"y. c #878874",
"u. c #8F8871",
"i. c #86887D",
"p. c #8D8E7B",
"a. c #928D76",
"s. c #9C937B",
"d. c #A18564",
"f. c #A28961",
"g. c #AD8A60",
"h. c #B48769",
"j. c #AD9265",
"k. c #B49466",
"l. c #BA9160",
"z. c #A08677",
"x. c #A28B71",
"c. c #AB9C7D",
"v. c #C78068",
"b. c #C19867",
"n. c #C29969",
"m. c #CE9E7C",
"M. c #9B9583",
"N. c #9C9883",
"B. c #AC9E86",
"V. c #ABA486",
"C. c #A2A28A",
"Z. c #ABA48B",
"A. c #AFA68E",
"S. c #B8A085",
"D. c #B4AB8A",
"F. c #BAAD8F",
"G. c #B1AE94",
"H. c #B8B092",
"J. c #BBBD9E",
"K. c #CAA680",
"L. c #C6AC8C",
"P. c #C1AD95",
"I. c #C1BA9D",
"U. c #D2B696",
"Y. c #C5C19F",
"T. c #D3C495",
"R. c #C4C2A2",
"E. c #CBCAA5",
"W. c #CBCBAC",
"Q. c #D4D2A9",
"!. c #D6D8B4",
"~. c #D9DBB5",
"^. c #DDDFB9",
"/. c #DFE0BC",
"(. c #DFE3C0",
"). c #DFE9C0",
/* pixels */
"8 8 < < < < < < < < < < < < < < < 5 e < < < < < < < < r < < < < ",
"r < < < < < < < < < < < < 8 B H Z 8 8 < < < < < < < < 8 r < < < ",
"< < < < < < < < < < < < 9 B D.Q.E.2.7 < < < < < < < < < 8 r 5 < ",
"< < < < < < < < < < < < n 8 5.~.W.C 8 < < < < < < < < < < < 8 8 ",
"< < < < < < < < 5 w < 0 G R r.!.E.y.t.N < < < < < < < < < < < < ",
"< < < < < < < 6 E f n e.x.G.Z.R.E.G.Z.C < < < < < < < < < < < < ",
"< < < < < < 6 a p s S f.D.C.H A.A.t r.t.< < < < < < < < < < < < ",
"< < < < < 6 p h < > p } 1.s.s.F.V.s.2.Z 9 < < < < < < < < < < - ",
"* - < < < < 6 l A O.' ' +.J r.r.C C A B X.0 < < < < < < < - * X ",
"X * - < < < 8 x @.k.&.` &.@.B 9 < z 8.d.@.B < < < < < < - * X @ ",
"X * < < < < z F A 3.g.] ] 9.f.| A o.k.f...d < < < < < < - $ X * ",
"* * < < < < z D J F @.;.` -.j.@.x J j.X.F < , < < < < < < * X 2 ",
"- < < < < r A F A A ..d.$.(  .X.8 N X.B B < < < < < < < < : - * ",
"< < < < ; B J D D x k z r v b r < < < B K B q.C < < < < < < < < ",
"< < < < ; 0 a.a.D B z 9 , 4 m j % , e N.R.s.w.<.5 < < < < < < < ",
"< < < < < < T B.s.u.<.A 8 : j ! g B.W.~.!.I.c.o.5 < < < < < < < ",
"< < < < < 8 H V.Y.~.R.Y 5 <  .h.6.v.~.^.Q.H.s.A 5 < < < < < < - ",
"< < < < ; V p.J.(.)./.i.5 :.l.b.K.*.z.Z.N.H z 5 < < < < < < - - ",
"< < < < < < < T F.U.L.F.M.:.;.[ 4.c k C e < < < < < < < < - < < ",
"< < < < < < < B ,.=.m.S.Z x l U , & & @ : < < < < < - < < - - < ",
"< < < < < 5 9 6 M P.T.d.k 8 # P 7.e > 3 v h < < < < < < < * * - ",
"< < < < < < < f v x.n.>.~ 8 < & L i.t j ! m j < < < < < > * * - ",
"< < < < < < u E Q { o.} n 8 8 < < I i.M b m m 6 < < < < > * * * ",
"< < < < < < i ) g k l n 8 e 5 , : : N t 8 l l 5 < < < < - * * - ",
"< < < < < < v ^ _ W s 8 - q - * 5 < * < 8 8 8 < < < < - * * * - ",
"< < < < * 1 m ! ! y ; 2 + < ; 8 ; * X * < w w - - < < - * * * * ",
"< < > * + u m m v * O * X X X X X X X X * 9 k = O * < - * * - - ",
"< < - o o u b v 6 X 2 X                 1 / %.~ + X * * - < < - ",
"< < < * * { | n = o 8 .           X X X * f W / y $ * * < < - - ",
"< < < ; F 0.0.s X @ % X X X X X X X X X @ * = 1 2 * - - < - < < ",
"< < < ; A #. .1 % @ @ X X X X X X X X X * * * * * - < < - * - < ",
"< < < * % 2 5 , - * : * * * * * * * - - < < - * - > < < - * - < "
};
