/* XPM */
static char *aabf1f5158554ea0f68bbf02710c05f1wv7paRnXvG2rR1Ue[] = {
/* columns rows colors chars-per-pixel */
"32 32 185 2 ",
"   c #383737",
".  c #3D3D3D",
"X  c #413F3E",
"o  c #43413E",
"O  c #52453E",
"+  c #3C3D41",
"@  c #3B3E49",
"#  c #413E47",
"$  c #3F4140",
"%  c #3D4149",
"&  c #444444",
"*  c #4A4646",
"=  c #464846",
"-  c #4B4947",
";  c #454549",
":  c #4A474A",
">  c #464849",
",  c #4A4A4A",
"<  c #574842",
"1  c #5A4B45",
"2  c #58454B",
"3  c #534D4B",
"4  c #5C4C4D",
"5  c #4E514E",
"6  c #545047",
"7  c #54514D",
"8  c #5A554D",
"9  c #5F5A4F",
"0  c #4E4E51",
"q  c #564F50",
"w  c #555351",
"e  c #5B5551",
"r  c #5D5A54",
"t  c #614E4E",
"y  c #6A4F4E",
"u  c #605247",
"i  c #61554D",
"p  c #6B534D",
"a  c #635A4E",
"s  c #6D5D4D",
"d  c #74524C",
"f  c #7D534B",
"g  c #7F584F",
"h  c #604D50",
"j  c #694E53",
"k  c #605552",
"l  c #6B5353",
"z  c #645C52",
"x  c #6A5E52",
"c  c #605E5A",
"v  c #735255",
"b  c #7C5455",
"n  c #7C5C52",
"m  c #7B5259",
"M  c #7A624F",
"N  c #666054",
"B  c #6D6352",
"V  c #64625D",
"C  c #6B645A",
"Z  c #6F6A5F",
"A  c #726453",
"S  c #796755",
"D  c #736855",
"F  c #7B6A55",
"G  c #76685B",
"H  c #7A6A5B",
"J  c #656662",
"K  c #6B6B62",
"L  c #726C64",
"P  c #6D766E",
"I  c #767264",
"U  c #7B7663",
"Y  c #76776A",
"T  c #7E7668",
"R  c #797B6E",
"E  c #6F7970",
"W  c #767B70",
"Q  c #7D7C70",
"!  c #85564E",
"~  c #8A534B",
"^  c #835B4C",
"/  c #92584E",
"(  c #9C584E",
")  c #865354",
"_  c #8E5450",
"`  c #805D57",
"'  c #815258",
"]  c #835C5C",
"[  c #A55745",
"{  c #A5574A",
"}  c #AC5749",
"|  c #B55945",
" . c #8C6452",
".. c #856D54",
"X. c #8C695D",
"o. c #9F6654",
"O. c #966A55",
"+. c #93665B",
"@. c #847257",
"#. c #8D7756",
"$. c #84735A",
"%. c #8A745A",
"&. c #8D7B5D",
"*. c #977357",
"=. c #937B5C",
"-. c #9A7F5F",
";. c #AA634E",
":. c #BE6A52",
">. c #A87357",
",. c #AB7F5F",
"<. c #916864",
"1. c #827666",
"2. c #8F7964",
"3. c #857D6B",
"4. c #927C62",
"5. c #9F7E63",
"6. c #A67565",
"7. c #C77F64",
"8. c #7E8172",
"9. c #96815F",
"0. c #98835C",
"q. c #AD855D",
"w. c #BD8E5F",
"e. c #8C8169",
"r. c #918267",
"t. c #9D8562",
"y. c #848272",
"u. c #8B8372",
"i. c #8B8A76",
"p. c #888578",
"a. c #8C8E7E",
"s. c #948871",
"d. c #998479",
"f. c #988F7C",
"g. c #94957E",
"h. c #9B957D",
"j. c #AD8267",
"k. c #A48A62",
"l. c #AC8C64",
"z. c #A18E6F",
"x. c #B88560",
"c. c #B68C61",
"v. c #B68169",
"b. c #BE9161",
"n. c #B39865",
"m. c #BF8E77",
"M. c #A2967C",
"N. c #A3997F",
"B. c #B0917B",
"V. c #969487",
"C. c #9A9984",
"Z. c #A99581",
"A. c #A39B82",
"S. c #A89F84",
"D. c #A09888",
"F. c #9EA087",
"G. c #A2A086",
"H. c #A7A18A",
"J. c #A9A388",
"K. c #ADA58B",
"L. c #A6A791",
"P. c #AFAC90",
"I. c #B6AD90",
"U. c #B8AF90",
"Y. c #B5B293",
"T. c #BAB395",
"R. c #D3AF8A",
"E. c #C5B084",
"W. c #C5AF91",
"Q. c #C0BC9C",
"!. c #D0B393",
"~. c #BFC1A1",
"^. c #C2C3A2",
"/. c #C9C7A5",
"(. c #CCCDAA",
"). c #CFD1AE",
"_. c #D1D1AB",
"`. c #CED2B1",
"'. c #D4D4B1",
"]. c #D7D9B5",
"[. c #DBDEB6",
"{. c #DCDEBA",
"}. c #DEE4BC",
"|. c #E1E2BB",
" X c #E0E8BF",
/* pixels */
", , , , = 3 r , , , , , , , , , = , , , , , , , , , , , = , , , ",
", , , , , 8 N , , 7 8 6 7 7 , , , , , , , , , , , , , , , , , , ",
", , = , , , , , w G D r.t.0.a , , , , , , , , , , , , , , = , , ",
", , , , , , , w C.J.x U z.5.` 3 , , , , , , , = = , , , , , , , ",
", , , , , , , N /.~.Z g.T.X.X.$.i , , , , 3 , , * * , = = , , , ",
", , , , , , , I /.(.Y.).I.%.k.n.#.3 , 3 y ! p q h : * > & = , , ",
", , , , , , , 3.H.K f.h.C S F &.@.x 8 i f g v v f 4 , , & = , , ",
", , , , , , 3 s.J.3.Z 3 7 =.N 7 x $.%.l 1 2 2 ~ ~ f , , = = , , ",
", , , , , , , L u.A.r = $.k.x B 9.,.;.{ f = # f ! 3 , , , , , , ",
", , , , , , , , 3 B x S l.k.F 9.>.| [  .=.&.9 H 8 , , , , , , , ",
", , , , , , , ; 7 $.F #.k.=.F  .| [ *.k.-...S x , , , , , , , , ",
", , , , , , , , w =.$.S =.x 3 ~ / =.t...S S S B 8 , , , , , , , ",
", , , , , , , C 1.G z z F , t m S &.S x x A S 1.C , , , , , , , ",
", , , , , , 7 1.s.A r 3 , : v j ; , e x A D 3.h.Y > , , , , , , ",
", , , , , , r N.M.K.P.F.r & : : ; 8 B B A h.`./.y., , , , , , , ",
", , , , , , r e.U.].[.[.j.+.p.r ; , 7 ; T Q.'.^.U * = = = , > , ",
", , , , , , 3 x A.'.'.!.:.R.E.l.n J P W ~.(.Y.G.i.R R R R R W V ",
", , , , , , , , 8 I N.B.6.W.j.w.x.3.E L.}. X{.T.i.8.8.8.8.8.8.I ",
", , , , , , , , , 5 u.S.J.u.d o.+.1 + A.|.|._.S.z ; = : ; ; 3 7 ",
", , , , , , , , L D.d.L 7 7 ; 2 i , 4 v.7.m.Z.H , , , , , , e 3 ",
", , , , = w K V.d.] b 2 @ 0 ; % w 7 w 2.v.6.` l , , , , , r 7 , ",
", , , 7 Y a.a.J k l e > % , , , 7 i O.q.4.Z.<.d , , , 7 e 7 , , ",
", , , Q y.c , = , 0 5 7 , ; , 7 r z ..b.q.H n ~ 3 7 8 7 , , , , ",
", , , 8 7 3 , , ; ; 0 w 5 , , 7 8 7 a M M ! ^ ^ 8 3 , , , , , , ",
"= , = & * - e 8 7 , , 7 > , , z , > 3 7 p } | ( u , , , , , , , ",
"= = = : , = = , 8 8 x x a i a a & & & 7 3 d _ ) l : , , , , , , ",
", , , , , , , > 3 n o. .n < & & X . . * 7 t m ' m * $ & & = , , ",
", , , , , , , , t p ^ 1 O X . . .     . , 3 l m m 4 X . . . & = ",
", , , , , , , , & X o + . .             X 7 3 4 b p . . X . . & ",
", , , , , , , , = . . . . .               : ; 4 >.*.1 . . . . & ",
", , , , , , , , , & + . . . . . .         + + p x.c.s . . . & = ",
", , , , , , , , , , & & . . . . . . . . . . + 3 M s o # & = , , "
};
