/* XPM */
static char *bfa5cbe2005347efe9517497532ed108UquLPP7MA3XDBPbd[] = {
/* columns rows colors chars-per-pixel */
"32 32 186 2 ",
"   c #363636",
".  c #383737",
"X  c #393837",
"o  c #363638",
"O  c #3D3D3D",
"+  c #403F3F",
"@  c #42413E",
"#  c #3C3E41",
"$  c #3D3F48",
"%  c #453E48",
"&  c #3E4144",
"*  c #3E4148",
"=  c #454545",
"-  c #4C4343",
";  c #464847",
":  c #4B4947",
">  c #44454A",
",  c #494749",
"<  c #46494B",
"1  c #4A4A4A",
"2  c #534442",
"3  c #544B46",
"4  c #5F4C45",
"5  c #534D4B",
"6  c #5C4E4B",
"7  c #4E514E",
"8  c #54514D",
"9  c #5B544D",
"0  c #4D4D51",
"q  c #555452",
"w  c #5A5550",
"e  c #5C5A53",
"r  c #62474D",
"t  c #634D4B",
"y  c #6B4E48",
"u  c #7C4F48",
"i  c #63544C",
"p  c #6C524F",
"a  c #645A4C",
"s  c #69594D",
"d  c #75534D",
"f  c #79534B",
"g  c #765D4D",
"h  c #7F5A4F",
"j  c #634E52",
"k  c #684E53",
"l  c #635453",
"z  c #6B5555",
"x  c #645C52",
"c  c #6B5D52",
"v  c #625D58",
"b  c #755153",
"n  c #7B5254",
"m  c #755D52",
"M  c #7E5953",
"N  c #7C5259",
"B  c #6C6354",
"V  c #64635C",
"C  c #6A665B",
"Z  c #66685F",
"A  c #6D695D",
"S  c #726453",
"D  c #7D6255",
"F  c #756955",
"G  c #7B6A55",
"H  c #756559",
"J  c #756A5A",
"K  c #7E6D5B",
"L  c #6E6D62",
"P  c #746D62",
"I  c #6D7168",
"U  c #7A7363",
"Y  c #7F7866",
"T  c #787569",
"R  c #7F7E6D",
"E  c #7F7D70",
"W  c #865247",
"Q  c #8A544B",
"!  c #875B4F",
"~  c #8D594E",
"^  c #93544A",
"/  c #955D4A",
"(  c #9B584A",
")  c #805357",
"_  c #865D53",
"`  c #8C5B53",
"'  c #80535A",
"]  c #A55647",
"[  c #AC5648",
"{  c #A75B49",
"}  c #B75744",
"|  c #B35B49",
" . c #8D604F",
".. c #866855",
"X. c #976A58",
"o. c #897357",
"O. c #84725C",
"+. c #887358",
"@. c #8D795C",
"#. c #97755A",
"$. c #947B5D",
"%. c #9D7B5E",
"&. c #A8674E",
"*. c #B36755",
"=. c #AD7052",
"-. c #A17D58",
";. c #AE7E5E",
":. c #BD7359",
">. c #B17D5B",
",. c #8C6462",
"<. c #936F69",
"1. c #837965",
"2. c #897E67",
"3. c #8F7068",
"4. c #837E6C",
"5. c #8C7E6D",
"6. c #967866",
"7. c #937169",
"8. c #927868",
"9. c #9C7D6B",
"0. c #867770",
"q. c #BF7E68",
"w. c #7E8072",
"e. c #96815D",
"r. c #9C835E",
"t. c #A5825D",
"y. c #B1805E",
"u. c #B98B5F",
"i. c #978062",
"p. c #9E8661",
"a. c #90826A",
"s. c #9A8168",
"d. c #858172",
"f. c #858778",
"g. c #8B8B7C",
"h. c #958775",
"j. c #928B7A",
"k. c #9B8D7B",
"l. c #9D977D",
"z. c #A48C65",
"x. c #AB8E64",
"c. c #BE8E62",
"v. c #A99064",
"b. c #B09067",
"n. c #BE9565",
"m. c #A4957A",
"M. c #A9907B",
"N. c #BEA478",
"B. c #C2876B",
"V. c #8B9787",
"C. c #939483",
"Z. c #9F9784",
"A. c #979D87",
"S. c #9B9C84",
"D. c #999D89",
"F. c #AF9781",
"G. c #A19D85",
"H. c #A89F83",
"J. c #A6A186",
"K. c #AAA084",
"L. c #A4A289",
"P. c #ACA58B",
"I. c #AAAD8F",
"U. c #ADAB92",
"Y. c #B5A992",
"T. c #BEAF91",
"R. c #B6B296",
"E. c #BBB897",
"W. c #BEBB99",
"Q. c #C6AD8F",
"!. c #D0AC8A",
"~. c #C0B997",
"^. c #C0BD9C",
"/. c #D9B998",
"(. c #C5BFA0",
"). c #C3C1A2",
"_. c #CAC6A3",
"`. c #CCCBA9",
"'. c #D8C2A0",
"]. c #CFD3AE",
"[. c #CED2B1",
"{. c #D4D3B2",
"}. c #DCDCB5",
"|. c #DCDFBA",
" X c #DEE3BB",
".X c #E1EAC0",
/* pixels */
"1 1 1 1 1 1 1 ; = = = ; , 1 , ; 1 1 1 < < 1 1 1 1 8 J 8 1 1 1 1 ",
"1 1 1 1 1 1 = = ; ; ; ; 1 1 ; ; 1 1 8 S F B x 9 1 1 9 5 1 1 1 1 ",
"1 1 1 1 1 ; = ; ; ; ; ; 1 1 ; ; ; 5 O.x.z.2.F j.V 7 1 1 1 ; 1 1 ",
"1 1 1 1 ; = = ; 1 1 ; ; 1 ; ; , 1 z ` 6.H.A B ).L.q 1 1 1 ; 1 1 ",
"1 1 1 ; = ; , : 5 1 4 t 1 1 ; 1 +.z.$.8._.I.S.}.W.e 1 1 1 1 1 1 ",
"1 ; ; = ; 1 1 5 p l ) ~ b 8 1 x r.v.@.K G.).U.U.R.C 1 1 1 1 1 1 ",
"1 ; ; = = ; 1 u W n k p t l B S S B F G 8 U U V P.U 1 1 1 1 1 1 ",
"1 1 1 ; = ; 1 f ^ u % - y ` %.i.S 8 F p.9 = T H.K.U : 1 1 1 1 1 ",
"1 1 1 1 1 ; < 5 D s ; F  .] | =.r.J F b.@.5 C 1.x 8 1 1 1 1 1 1 ",
"; 1 1 1 1 1 1 1 8 S G r.p.#.( } &.$.o.x.x...S a ; 1 1 1 1 1 1 1 ",
"; 1 1 1 1 1 1 ; 5 B G G @.p.%./ ] h c O.r.G @.@.1 ; 1 1 1 1 1 1 ",
"1 1 1 1 1 1 1 1 x F G S B F $.e.` n : 9 @.x O.H v 8 1 1 1 1 1 1 ",
"= 1 1 1 1 1 1 1 4.1.G S x a x B 9 N j 5 c 8 9 J h.B ; 1 1 1 1 1 ",
"= 1 1 1 1 1 1 1 C.I.G.J S B 9 ; > j 6 * 1 L Y 2.m.2.; 1 1 1 1 1 ",
"; 1 1 1 1 1 1 5 l.{.|.J.c l B 8 * 0 q r h.].`.(.m.k.8 ; 1 1 1 1 ",
", 1 7 1 1 1 1 8 R R.W.^.d.> 1 > 6 a.T.q.B.}. X|.K.F 1 = ; 1 1 1 ",
"5 E A.A.D.D.D.D.L.R.`. X[.D.V.5.;.n.N.!.*.Q.~.L.A 5 1 1 1 1 1 1 ",
"5 x w q q q q q U E. X.X|.w.< D >.>.X.Y.F.m.U 1 , 1 1 1 1 1 1 1 ",
"1 8 5 1 1 1 1 1 x l._.'./.9.= 4 m M 3 P 4.Z.j.I 0 , 1 1 1 1 1 1 ",
"1 1 w 5 1 1 1 1 1 H 7.*.:.9.1 1 8 * < 1 > z <.k.d.V 1 1 1 1 1 1 ",
"1 1 5 e 8 1 1 1 1 b ,.M.s.o.i w 8 * 1 1 $ 5 b n 0.C.f.Z 1 1 1 1 ",
"1 1 1 1 8 9 8 1 5 Q 3.9.z.c...x 8 1 1 > < 1 q w 1 1 L g.g.e 1 1 ",
"1 1 1 1 1 1 8 8 i Q c g t.-.c w e 8 < < 7 8 7 < 1 ; , 8 A L 1 1 ",
"1 1 1 1 1 1 1 1 i / { ^ t 9 8 1 8 8 1 1 1 q 1 ; 1 q w w 8 1 1 1 ",
"1 1 1 1 1 1 1 1 d ( [ Q 6 8 ; ; 1 x 5 5 5 w 5 w 9 8 8 1 1 1 1 1 ",
"1 1 1 1 1 1 ; 3 N ) n 6 8 : O O = 8 8 s m .._ 9 1 1 1 1 1 1 1 1 ",
"1 1 1 1 ; = = 6 N ' b 6 8 O O O O O O 2 d ! X.f 5 ; ; 1 1 1 1 1 ",
"1 1 1 ; # O + p b z 5 8 @ o     . X X X O - 4 2 - = ; 1 1 1 1 1 ",
"1 1 1 = O O -  ._ : 1 : X               X O O O O O = 1 1 1 1 1 ",
"1 1 1 ; & O G u.y.3 $ # X   .     X X X O O O O O O ; 1 1 1 1 1 ",
"1 1 1 1 ; = a t.#.5 # O O O O O O O O O O O O + = ; 1 1 1 1 1 1 ",
"1 1 1 ; 1 1 = 3 3 = # O O O O O O O O O = = ; ; 1 1 1 1 1 1 1 1 "
};
