/* XPM */
static char *_0812990a52d460e8d2273e59ee9344d23IxRjmhdNTChzEF[] = {
/* columns rows colors chars-per-pixel */
"32 32 114 2 ",
"   c #231F34",
".  c #291F33",
"X  c #1F2134",
"o  c #25202F",
"O  c #232034",
"+  c #2B2235",
"@  c #2E2A37",
"#  c #2D2438",
"$  c #2D2A3A",
"%  c #332335",
"&  c #392437",
"*  c #3E2B37",
"=  c #342639",
"-  c #3B263A",
";  c #352C39",
":  c #3C2A3B",
">  c #36323C",
",  c #3C323D",
"<  c #432A36",
"1  c #45273C",
"2  c #48273C",
"3  c #45293C",
"4  c #492B3B",
"5  c #44343D",
"6  c #49313D",
"7  c #4B3A3F",
"8  c #3C3440",
"9  c #3D3C43",
"0  c #3D3B4B",
"q  c #482E40",
"w  c #443541",
"e  c #4C3742",
"r  c #443B43",
"t  c #4B3C45",
"y  c #473C48",
"u  c #4D3D48",
"i  c #503E47",
"p  c #444346",
"a  c #4C4346",
"s  c #474947",
"d  c #4A4847",
"f  c #46424A",
"g  c #4B454A",
"h  c #474849",
"j  c #4A494A",
"k  c #534246",
"l  c #554847",
"z  c #52444B",
"x  c #5B474A",
"c  c #544C4C",
"v  c #5C4C4C",
"b  c #55534E",
"n  c #5A554E",
"m  c #5C584E",
"M  c #464350",
"N  c #554E50",
"B  c #575551",
"V  c #595551",
"C  c #5C5951",
"Z  c #595658",
"A  c #61504F",
"S  c #645452",
"D  c #635C54",
"F  c #6A5954",
"G  c #635658",
"H  c #645C59",
"J  c #6A5D5A",
"K  c #6D6257",
"L  c #67605A",
"P  c #6B625B",
"I  c #69655A",
"U  c #6D605C",
"Y  c #6A675E",
"T  c #6D675C",
"R  c #6E6A5F",
"E  c #77635B",
"W  c #78645C",
"Q  c #756A5D",
"!  c #74685F",
"~  c #6E5B60",
"^  c #6F6260",
"/  c #6F6D62",
"(  c #706B60",
")  c #756B62",
"_  c #756E62",
"`  c #766E63",
"'  c #7B6F63",
"]  c #7A6E65",
"[  c #796F69",
"{  c #7B7164",
"}  c #7E756B",
"|  c #7F7A6D",
" . c #6E6B74",
".. c #716D77",
"X. c #766F77",
"o. c #777076",
"O. c #80716A",
"+. c #81776B",
"@. c #83796F",
"#. c #857B6C",
"$. c #85796E",
"%. c #837E6D",
"&. c #847D6F",
"*. c #897C6E",
"=. c #8C7B77",
"-. c #898070",
";. c #8D8373",
":. c #908374",
">. c #928575",
",. c #928678",
"<. c #918878",
"1. c #958A78",
"2. c #9B8E7B",
"3. c #9C8A7F",
/* pixels */
"o. .0   r R C b D =.S a V V V V n n V V V V V V V n V B a F ) n ",
"X.M O # e F J t ~ x l B V V V V V V V V V c c V V n V c [ 3.@.n ",
"..0   % 4 6 e 4 e x n C C C C B B B V U v a V V V V V n D K H V ",
"0 $ # * 3 w z u c U ! $.,.<.&.C n m U v k c V V V V V V V B V V ",
"$ > g a t y r 5 7 k k x F { -.:.;.) z r c V V V V V V V V V V V ",
"O 9 b B b c z a r = % % = 8 g G S a ; w b V V V V V V V V V V C ",
"# f n n B B V V j @         O # # . , j B V V V V V V V n n I O.",
"y G ] +.( n V V V ;     O O O     O 9 b V V V V V V V V n Y | _ ",
"k A ' >.;._ L V g @   O O O O O O O > B D n V V V V V V n / _ j ",
"4 < t c H ( n a r #   O O O O # O O O f D T Y n V V B B V n j j ",
"- 3 4 - + O O # j ;   X O O + : % +   o p _ %.R ( T C V c j j j ",
"O = : 1 = O   + j > O O O X + 1 3 : % + + , ^ 2.2.1.L N y r h h ",
"+ O O O       + j r # O O X + 3 3 3 2 3 = % u W W E n r y g j h ",
"- + O O O   O + p B >   O O + 3 3 3 3 3 3 = & 6 4 4 4 y g d h s ",
"% + O + O   O + y B >   O O + 3 3 3 3 3 3 3 3 3 3 2 3 y j j j j ",
"z g p w ; O O O , N >   O O + 3 3 3 3 3 3 2 4 3 3 3 3 y j h j j ",
"5 G D c g w ; O + j >   O O + 3 3 3 3 3 3 3 3 3 3 3 3 3 y j j j ",
"< 7 F J n c g r ; ; #   O   + 3 3 3 3 3 3 3 3 3 3 3 3 3 t g d s ",
"c z k S P V V b c w ; + O   O % 3 3 3 3 3 3 3 3 3 3 3 3 6 r d h ",
"V V c v H V n n V B g r ; # O + 3 3 3 3 3 3 3 3 3 3 3 3 3 r g f ",
"P T D n n B V V V V V b c 8 O + : 3 3 3 3 3 3 3 3 3 3 3 3 , > ; ",
"S K ' } R n V V V V n n n f O + 3 3 3 3 3 3 3 3 3 & = = & + + 8 ",
"= w U *.%._ _ _ P H L C V f   . = - - - - - - - = O   + + + > j ",
"    % , Z } $.*.! ! T D c w     O O O O O X O O + + % - 3 3 5 y ",
"O     O O % q i c c g a t ; O O O   . + + + + % 3 3 3 3 4 4 3 3 ",
"O O O O O + 3 3 3 3 3 3 y f O   O   - 3 3 3 3 3 3 3 3 3 3 3 3 3 ",
"O O O O O + 3 3 3 3 3 3 u a +   O O - 3 3 3 3 3 3 3 3 3 3 3 3 3 ",
"O O O O O + 3 3 3 3 3 3 u j ; O X O - 3 3 3 3 3 3 3 3 3 3 3 3 3 ",
"O O O O O + 3 3 3 3 3 3 u B f O X O - 3 3 3 3 3 3 3 3 3 3 3 3 3 ",
"O O O O O + 3 3 3 3 3 3 u V j + X O - 3 3 3 3 3 3 3 3 3 3 3 3 : ",
"    O O O + 3 3 3 3 3 3 e b c = O O + - 3 3 3 4 3 3 3 3 3 3 - + ",
"O   O O O + 3 3 3 3 3 3 w j c 3 O O   = 2 3 2 3 3 & 3 3 3 3 = @ "
};
